# xmcd
#
# Track frame offsets: 
#        150
#        15931
#        28284
#        45538
#        60691
#        77953
#        83309
#        95663
#        112036
#        125046
#
# Disc length: 1931 seconds
#
# Revision: 0
# Processed by: cddbd v1.5.2PL0 Copyright (c) Steve Scherf et al.
# Submitted via: ExactAudioCopy v0.99pb5
#
DISCID=7a07890a
DTITLE=Lorenzo Gangi - Fistful of Lonesome
DYEAR=2005
DGENRE=Bluegrass
TTITLE0=Blue Mountain Backstep
TTITLE1=Wings of Angels
TTITLE2=Butter Creek
TTITLE3=Lodi
TTITLE4=Driving My Live Away
TTITLE5=Fat Rick
TTITLE6=Paper Heart
TTITLE7=La Cucaracha
TTITLE8=Road to Columbus
TTITLE9=One More Time
EXTD=
EXTT0=
EXTT1=
EXTT2=
EXTT3=
EXTT4=
EXTT5=
EXTT6=
EXTT7=
EXTT8=
EXTT9=
PLAYORDER=
